{
    "asset" : {
        "generator" : "Khronos glTF Blender I/O v3.2.40",
        "version" : "2.0"
    },
    "scene" : 0,
    "scenes" : [
        {
            "name" : "Scene",
            "nodes" : [
                0
            ]
        }
    ],
    "nodes" : [
        {
            "mesh" : 0,
            "name" : "drawerLoPoly"
        }
    ],
    "materials" : [
        {
            "doubleSided" : true,
            "name" : "shelvesMat",
            "pbrMetallicRoughness" : {
                "baseColorFactor" : [
                    0.8000000715255737,
                    0.16776032745838165,
                    0.15864217281341553,
                    1
                ],
                "metallicFactor" : 0.5,
                "roughnessFactor" : 0.75
            }
        }
    ],
    "meshes" : [
        {
            "name" : "Cube",
            "primitives" : [
                {
                    "attributes" : {
                        "POSITION" : 0,
                        "NORMAL" : 1,
                        "TEXCOORD_0" : 2
                    },
                    "indices" : 3,
                    "material" : 0
                }
            ]
        }
    ],
    "accessors" : [
        {
            "bufferView" : 0,
            "componentType" : 5126,
            "count" : 306,
            "max" : [
                0.5,
                0.25,
                0.550000011920929
            ],
            "min" : [
                -0.5,
                0,
                0
            ],
            "type" : "VEC3"
        },
        {
            "bufferView" : 1,
            "componentType" : 5126,
            "count" : 306,
            "type" : "VEC3"
        },
        {
            "bufferView" : 2,
            "componentType" : 5126,
            "count" : 306,
            "type" : "VEC2"
        },
        {
            "bufferView" : 3,
            "componentType" : 5123,
            "count" : 852,
            "type" : "SCALAR"
        }
    ],
    "bufferViews" : [
        {
            "buffer" : 0,
            "byteLength" : 3672,
            "byteOffset" : 0
        },
        {
            "buffer" : 0,
            "byteLength" : 3672,
            "byteOffset" : 3672
        },
        {
            "buffer" : 0,
            "byteLength" : 2448,
            "byteOffset" : 7344
        },
        {
            "buffer" : 0,
            "byteLength" : 1704,
            "byteOffset" : 9792
        }
    ],
    "buffers" : [
        {
            "byteLength" : 11496,
            "uri" : "drawersLoPoly.bin"
        }
    ]
}
